<svg width="50px" height="50px" fill="black" id="Capa_1" enable-background="new 0 0 511.998 511.998" viewBox="0 0 511.998 511.998" xmlns="http://www.w3.org/2000/svg"><g><path d="m9.994 386h.009 50.925c4.718 25.567 27.161 45 54.072 45s49.354-19.433 54.072-45h203.855c4.718 25.567 27.161 45 54.072 45 30.327 0 55-24.673 55-55 0-14.713-5.925-28.634-16.048-38.814l41.526-27.19c5.316-3.48 6.075-10.976 1.578-15.452-20.419-20.333-48.572-32.387-77.804-33.457-1.344-40.228-10.95-57.765-24.969-83.312-2.804-5.111-5.832-10.638-9.018-16.774h14.736c5.522 0 10-4.477 10-10v-60c0-5.523-4.478-10-10-10h-30c-22.056 0-40 17.944-40 40 0 2.376.234 4.726.645 7.035l-53.07 13.263c-5.357 1.339-8.616 6.768-7.276 12.126 1.341 5.365 6.772 8.614 12.126 7.277l41.611-10.399c.111 5.799.886 12.372 1.856 19.475.685 5.013 4.973 8.649 9.896 8.649 6.086 0 10.739-5.36 9.921-11.353-.963-7.057-1.421-12.042-1.59-15.586 5.237 4.453 11.561 7.484 18.372 8.781 5.167 10.559 9.962 19.297 14.258 27.127 13.082 23.838 21.359 38.95 22.524 74.687-16.55 2.284-32.3 8.162-46.221 17.086 1.09-6.454 1.752-13.427 1.978-20.972.166-5.52-4.176-10.129-9.696-10.295-5.484-.14-10.129 4.176-10.294 9.696-.622 20.759-4.763 35.879-12.655 46.22-8.832 11.561-22.695 17.18-42.384 17.18h-21c-19.299 0-35-15.701-35-35 0-15.884 18.451-31.868 25.578-36.7 2.675-1.802 4.422-4.906 4.422-8.311v-29.989c0-22.056-17.944-40-40-40h-126.001c-22.056 0-40 17.944-40 40v24.097c-59.293 35.542-60 136.498-60 140.904 0 .023.003.044.003.067.042 5.536 4.567 9.934 9.991 9.934zm372.006-245.001-.191.004c-.135-.009-.271-.016-.406-.02-10.867-.307-19.403-9.271-19.403-19.984 0-11.028 8.972-20 20-20h20v40zm45 270c-19.299 0-35-15.701-35-35s15.701-35 35-35c19.259 0 35 15.591 35 35 0 19.299-15.701 35-35 35zm-74.71-93.608c16.994-21.607 42.383-34.822 69.67-36.257 22.008-1.192 44.992 5.371 63.515 19.362l-37.606 24.623c-6.59-2.697-13.695-4.121-20.868-4.121-26.911 0-49.354 19.433-54.072 45h-40.392c1.839-17.728 8.562-34.372 19.753-48.607zm-237.29 93.608c-15.824 0-29.223-10.56-33.537-25.01h67.073c-4.313 14.451-17.712 25.01-33.536 25.01zm-84.193-45 18.891-23.612c15.96-19.947 39.761-31.388 65.302-31.388 32.441 0 59.405 23.89 64.229 55zm142.193-175h53c11.028 0 20 8.972 20 20v20h-73zm-93 20c0-11.028 8.972-20 20-20h53v40h-73zm-7.545 39.99h158.107c-7.64 9.235-14.562 21.351-14.562 35.01 0 30.327 24.673 55 55 55h21c9.794 0 18.68-1.201 26.635-3.583-3.272 9.163-5.364 18.739-6.204 28.583h-113.039c-4.968-42.171-40.908-75-84.392-75-31.649 0-61.143 14.176-80.918 38.893l-11.182 13.976c4.716-30.793 17.093-75.12 49.555-92.879z"/><circle cx="354" cy="212.999" r="10"/></g></svg>